<?xml version="1.0" standalone="no"?><!DOCTYPE svg PUBLIC "-//W3C//DTD SVG 1.1//EN" "http://www.w3.org/Graphics/SVG/1.1/DTD/svg11.dtd"><svg t="1607308453437" class="icon" viewBox="0 0 1621 1024" version="1.1" xmlns="http://www.w3.org/2000/svg" p-id="4876" xmlns:xlink="http://www.w3.org/1999/xlink" width="316.6015625" height="200"><defs><style type="text/css"></style></defs><path d="M1040.367606 1024zM1611.210501 93.449286a62.255153 62.255153 0 0 0-11.672841-81.197922 56.725913 56.725913 0 0 0-81.197922 11.672841c-2.969407 2.969407-324.484509 382.541535-707.128437 382.541535C440.240214 406.46574 104.082865 23.924205 101.215851 21.159585a57.54506 57.54506 0 1 0-86.93195 75.463894 1284.114933 1284.114933 0 0 0 185.434347 174.068686l-147.753596 153.590017a56.009159 56.009159 0 0 0 2.969407 81.197922 37.783144 37.783144 0 0 0 34.813737 17.406868 56.725913 56.725913 0 0 0 40.957338-17.406868l159.426437-165.160465a1127.555509 1127.555509 0 0 0 263.662862 136.285542L492.972787 681.903836a58.057026 58.057026 0 0 0 40.957337 72.494488h17.406869a56.009159 56.009159 0 0 0 55.087619-43.414778l60.821647-205.810622a735.286606 735.286606 0 0 0 289.875558 0l60.821647 202.841215a58.261813 58.261813 0 0 0 55.087619 43.414778c5.734027 0 11.672841 0 14.437461-2.969407a57.954633 57.954633 0 0 0 40.957338-72.494488l-60.821646-202.636428a1121.411908 1121.411908 0 0 0 263.662862-136.285542l156.45703 162.293451a55.906766 55.906766 0 0 0 80.993135 0 58.876173 58.876173 0 0 0 2.969407-81.197922l-147.753596-153.590017A1134.62065 1134.62065 0 0 0 1612.541615 93.654072z" p-id="4877"></path></svg>