<?xml version="1.0" standalone="no"?><!DOCTYPE svg PUBLIC "-//W3C//DTD SVG 1.1//EN" "http://www.w3.org/Graphics/SVG/1.1/DTD/svg11.dtd"><svg t="1607308447538" class="icon" viewBox="0 0 1024 1024" version="1.1" xmlns="http://www.w3.org/2000/svg" p-id="4749" xmlns:xlink="http://www.w3.org/1999/xlink" width="200" height="200"><defs><style type="text/css"></style></defs><path d="M999.466667 499.2c-5.333333-10.666667-14.933333-28.8-29.866667-52.266667-24.533333-38.4-54.4-75.733333-89.6-110.933333-101.333333-102.4-224-164.266667-368-164.266667s-266.666667 61.866667-366.933333 163.2c-35.2 35.2-65.066667 72.533333-89.6 110.933334-14.933333 22.4-25.6 40.533333-29.866667 51.2-4.266667 8.533333-4.266667 17.066667-1.066667 25.6 4.266667 10.666667 12.8 29.866667 25.6 52.266666 21.333333 38.4 49.066667 76.8 82.133334 112 96 102.4 221.866667 164.266667 380.8 164.266667 145.066667 0 267.733333-61.866667 368-163.2 35.2-35.2 65.066667-72.533333 89.6-110.933333 14.933333-22.4 24.533333-40.533333 29.866666-51.2 3.2-7.466667 3.2-18.133333-1.066666-26.666667z m-84.266667 43.733333c-22.4 34.133333-49.066667 68.266667-81.066667 100.266667-89.6 90.666667-196.266667 144-322.133333 144-139.733333 0-249.6-53.333333-333.866667-144-29.866667-32-54.4-66.133333-73.6-99.2-6.4-11.733333-11.733333-22.4-16-30.933333 4.266667-8.533333 11.733333-19.2 19.2-32 22.4-34.133333 50.133333-68.266667 81.066667-100.266667 89.6-90.666667 196.266667-144 322.133333-144 124.8 0 232.533333 54.4 322.133334 145.066667 32 32 58.666667 67.2 81.066666 101.333333 7.466667 11.733333 13.866667 22.4 19.2 30.933333-4.266667 7.466667-9.6 17.066667-18.133333 28.8z" p-id="4750"></path><path d="M512 330.666667c-103.466667 0-181.333333 78.933333-181.333333 181.333333s77.866667 181.333333 181.333333 181.333333 181.333333-78.933333 181.333333-181.333333-77.866667-181.333333-181.333333-181.333333z m0 297.6c-68.266667 0-117.333333-50.133333-117.333333-116.266667 0-67.2 49.066667-116.266667 117.333333-116.266667S629.333333 445.866667 629.333333 512c0 67.2-49.066667 116.266667-117.333333 116.266667z" p-id="4751"></path></svg>